# xmcd
#
# Track frame offsets: 
#        150
#        28306
#        41606
#        55644
#        73765
#        103697
#        130690
#        145640
#        169193
#        181025
#        195844
#        210157
#        224281
#        240131
#        263542
#        278422
#        291307
#        316144
#        329095
#        341189
#
# Disc length: 4664 seconds
#
# Revision: 1
# Processed by: cddbd v1.5.2PL0 Copyright (c) Steve Scherf et al.
# Submitted via: ExactAudioCopy v0.99pb5
#
DISCID=1d123614
DTITLE=Various Artist - Le Jazz de Cabu [CD1)
DYEAR=2015
DGENRE=Jazz
TTITLE0=Louis Amstrong and The All Stars - New Orleans Function
TTITLE1=Sidney Bechet and His New Orleans Feetwarmers - Shake it and B
TTITLE1=reak it
TTITLE2=Bessie Smith and Her Band - Nobody Knows You When You're Down 
TTITLE2=And Out
TTITLE3=Fats Waller and His Rhythm - Ain't Misbehavin'
TTITLE4=Duke Ellington and His Orchestra - The Mooche
TTITLE5=Mahalia Jackson - In the Upper Room
TTITLE6=Stephane Grapelli - Stephen's Blues
TTITLE7=Coleman Hawkins' Swing Four - Stephen's Blues
TTITLE8=Billie Holiday and Her Orchestra - Love Me or Leave Me
TTITLE9=Jimmie Lunceford and His Orchestra - Annie Laurie
TTITLE10=Art Tatum Trio - Tea for two
TTITLE11=Slim and Slam - Tutti Frutti
TTITLE12=Glenn Miller and The Army Air Forces Training Command Band - 
TTITLE12=Tuxedo Junction
TTITLE13=Ella Fitzgerald acc. by Oliver's Orchestra - You'll Have to S
TTITLE13=wing it
TTITLE14=Django Reinhardt et ses rythmes - Nuages
TTITLE15=Cab Calloway and His Orchestra - The Jumpin' Jive
TTITLE16=Lionel Hampton and His Just Jazz All Stars - Stardust
TTITLE17=Billy Strayhorn with Duke Hellington and his orchestra - Orso
TTITLE17=n
TTITLE18=Nat King Cole - Walkin' My Baby Back Home
TTITLE19=The Swingin' Ernie Wilkins Orchestra - It Don't Mean A Thing 
TTITLE19=If It Ain't Got That Swing
EXTD=YEAR: 2015
EXTT0=
EXTT1=
EXTT2=
EXTT3=
EXTT4=
EXTT5=
EXTT6=
EXTT7=
EXTT8=
EXTT9=
EXTT10=
EXTT11=
EXTT12=
EXTT13=
EXTT14=
EXTT15=
EXTT16=
EXTT17=
EXTT18=
EXTT19=
PLAYORDER=
